PathFileType	4	(X/Y/Z)	/Users/itak/Documents/Research/Walk-IL/dataset/trc/00385_00012.trc
DataRate	CameraRate	NumFrames	NumMarkers	Units	OrigDataRate	OrigDataStartFrame	OrigNumFrames
100.000000	100.000000	4	55	mm	100.000000	75	600
Frame#	Time	RPSI			LPSI			L3			STRN			T10			C7			CLAV			RBAK			LBAK			LSHO			LUPA			LAEL			LAOL			LWTS			LWPS			LFRA			LIFD			LHPS			LHTS			RSHO			RUPA			RAEL			RAOL			RWTS			RWPS			RFRA			RIFD			RHTS			RHPS			RBHD			LFHD			RFHD			RHIP			RASI			LKNE			LTHI			LANK			LTIP			LTOE			LMT1			LMT5			LHEE			RKNE			RANK			RTIP			RTOE			RMT1			RMT5			RHEE			LASI			LBHD			LHIP			RTHI			*53			*54			
		X1	Y1	Z1	X2	Y2	Z2	X3	Y3	Z3	X4	Y4	Z4	X5	Y5	Z5	X6	Y6	Z6	X7	Y7	Z7	X8	Y8	Z8	X9	Y9	Z9	X10	Y10	Z10	X11	Y11	Z11	X12	Y12	Z12	X13	Y13	Z13	X14	Y14	Z14	X15	Y15	Z15	X16	Y16	Z16	X17	Y17	Z17	X18	Y18	Z18	X19	Y19	Z19	X20	Y20	Z20	X21	Y21	Z21	X22	Y22	Z22	X23	Y23	Z23	X24	Y24	Z24	X25	Y25	Z25	X26	Y26	Z26	X27	Y27	Z27	X28	Y28	Z28	X29	Y29	Z29	X30	Y30	Z30	X31	Y31	Z31	X32	Y32	Z32	X33	Y33	Z33	X34	Y34	Z34	X35	Y35	Z35	X36	Y36	Z36	X37	Y37	Z37	X38	Y38	Z38	X39	Y39	Z39	X40	Y40	Z40	X41	Y41	Z41	X42	Y42	Z42	X43	Y43	Z43	X44	Y44	Z44	X45	Y45	Z45	X46	Y46	Z46	X47	Y47	Z47	X48	Y48	Z48	X49	Y49	Z49	X50	Y50	Z50	X51	Y51	Z51	X52	Y52	Z52	X53	Y53	Z53	X54	Y54	Z54	X55	Y55	Z55	

76	0.75	1017.136657714844	981.6002807617188	5.461505889892578	1013.783325195312	972.7866821289062	-126.2279815673828	1016.519470214844	1048.1162109375	-60.05056381225586	1251.568725585938	1205.056396484375	-56.82592391967773	1005.716369628906	1151.754516601562	-65.06939697265625	1042.359497070312	1401.611328125	-80.15557861328125	1197.579467773438	1323.556762695312	-63.29387283325195	996.10498046875	1257.015869140625	-11.68426895141602	1031.069458007812	1362.424438476562	-182.2111053466797	1121.37060546875	1374.689697265625	-229.2816619873047	1098.8251953125	1256.78759765625	-297.1968078613281	1120.3212890625	1058.24755859375	-314.2867126464844	1053.964721679688	1039.274536132812	-261.2773132324219	1210.39306640625	852.023681640625	-242.47314453125	1173.078735351562	832.2318115234375	-313.5371398925781	1141.499877929688	954.0177001953125	-315.0552673339844	1216.62646484375	672.7543334960938	-235.9433441162109	1189.534301757812	748.498046875	-299.3965759277344	1236.341064453125	756.508056640625	-255.5147247314453	1091.774780273438	1384.068115234375	82.34337615966797	1074.28857421875	1320.220092773438	141.4297027587891	1075.6328125	1060.920776367188	190.3927917480469	1056.489379882812	1045.864990234375	99.364501953125	1204.607177734375	847.2709350585938	166.5764312744141	1165.384521484375	837.5855712890625	228.6143188476562	1101.99462890625	995.9044799804688	208.8089447021484	1211.44482421875	675.07763671875	178.3285369873047	1227.493408203125	745.193359375	190.0107116699219	1171.771606445312	748.135498046875	230.9564819335938	1065.95654296875	1590.106201171875	-14.64772987365723	1252.749389648438	1589.3984375	-80.41925811767578	1193.289184570312	1596.323974609375	29.59691047668457	1105.231567382812	955.9574584960938	121.8730926513672	1230.97705078125	962.2686767578125	65.80971527099609	1122.168579101562	462.3655090332031	-209.7666931152344	1123.3603515625	604.7567138671875	-223.4937744140625	1020.58251953125	30.40513229370117	-159.4735260009766	1066.78759765625	233.1841888427734	-197.0649566650391	1234.4912109375	30.25740242004395	-91.36529541015625	1154.960815429688	33.12863540649414	-62.64475631713867	1149.20263671875	30.09132194519043	-167.5882110595703	982.5986328125	28.47726440429688	-103.064453125	1122.24853515625	466.9055786132812	103.0760726928711	1069.14013671875	45.92765045166016	73.66903686523438	1128.118286132812	341.6507263183594	88.88877105712891	1246.874877929688	26.58786964416504	6.915076732635498	1170.739990234375	32.38180160522461	-20.14242362976074	1153.369995117188	36.3897819519043	77.81668090820312	992.6795654296875	32.41831970214844	22.20272064208984	1214.98828125	952.1704711914062	-196.7532653808594	1128.643676757812	1580.495361328125	-161.8611602783203	1101.200805664062	954.0587768554688	-235.7448272705078	1150.901489257812	736.7418823242188	134.9044647216797	nan	nan	nan	nan	nan	nan	
77	0.76	1017.027099609375	981.61376953125	5.485994815826416	1013.864501953125	972.7916259765625	-126.1205978393555	1016.577819824219	1048.122802734375	-59.93405914306641	1251.50732421875	1205.082397460938	-56.79300689697266	1005.8271484375	1151.731567382812	-64.92062377929688	1042.302612304688	1401.608032226562	-80.09665679931641	1197.540893554688	1323.562744140625	-63.25756072998047	996.0399780273438	1256.979125976562	-11.65887928009033	1031.02197265625	1362.43994140625	-182.1419525146484	1121.33447265625	1374.712524414062	-229.2211608886719	1098.794555664062	1256.804809570312	-297.161376953125	1120.292846679688	1058.280151367188	-314.2393188476562	1054.015258789062	1039.277954101562	-261.2259216308594	1210.37060546875	852.0543823242188	-242.4501342773438	1173.048828125	832.259765625	-313.47314453125	1141.473388671875	954.0527954101562	-315.0142517089844	1216.593872070312	672.6871948242188	-235.8551788330078	1189.505859375	748.5200805664062	-299.3408203125	1236.316650390625	756.5390014648438	-255.4691314697266	1091.712524414062	1384.024658203125	82.3856201171875	1074.277099609375	1320.186401367188	141.5173950195312	1075.641357421875	1060.896240234375	190.4250335693359	1056.570068359375	1045.819580078125	99.44202423095703	1204.706909179688	847.2764282226562	166.6171569824219	1165.496704101562	837.5888061523438	228.6614074707031	1102.024780273438	995.8807373046875	208.8643493652344	1211.56884765625	675.0702514648438	178.3637084960938	1227.573852539062	745.2275390625	190.0293884277344	1172.048217773438	748.1669311523438	231.0817718505859	1066.005981445312	1590.094848632812	-14.43595123291016	1252.695678710938	1589.395263671875	-80.36684417724609	1193.27685546875	1596.296264648438	29.6894645690918	1105.102661132812	955.9415893554688	121.9281234741211	1230.9892578125	962.25244140625	65.82568359375	1122.154296875	462.3888854980469	-209.702392578125	1123.330688476562	604.7683715820312	-223.4377136230469	1020.576477050781	30.40214347839355	-159.4620361328125	1066.778198242188	233.18896484375	-197.0352783203125	1234.494506835938	30.26040840148926	-91.36195373535156	1154.96240234375	33.13089752197266	-62.64485931396484	1149.20654296875	30.0983829498291	-167.5877838134766	982.5989990234375	28.47580909729004	-103.0584259033203	1122.276977539062	466.9002990722656	103.1366119384766	1069.1396484375	45.92646789550781	73.68202972412109	1128.122314453125	341.6401672363281	88.90508270263672	1246.825561523438	26.54026222229004	6.879810810089111	1170.742553710938	32.38193130493164	-20.14215278625488	1153.372802734375	36.38051605224609	77.82209014892578	992.678955078125	32.41772079467773	22.20784950256348	1214.982421875	952.2510986328125	-196.7405395507812	1128.561767578125	1580.594360351562	-161.7485504150391	1101.230224609375	954.12744140625	-235.7139587402344	1150.640014648438	736.8456420898438	135.0506744384766	nan	nan	nan	nan	nan	nan	
78	0.77	1016.98876953125	981.6197509765625	5.532198429107666	1013.966918945312	972.7884521484375	-126.0140762329102	1016.665100097656	1048.127319335938	-59.81317901611328	1251.446411132812	1205.10986328125	-56.76066207885742	1005.956970214844	1151.713134765625	-64.77130889892578	1042.24169921875	1401.599609375	-80.03690338134766	1197.505126953125	1323.572998046875	-63.22392654418945	995.9673461914062	1256.94189453125	-11.62522411346436	1030.968139648438	1362.447021484375	-182.0741271972656	1121.30029296875	1374.733520507812	-229.1632232666016	1098.765258789062	1256.814819335938	-297.1250305175781	1120.262329101562	1058.306396484375	-314.1912841796875	1054.053588867188	1039.27734375	-261.1776733398438	1210.336669921875	852.0726318359375	-242.4310302734375	1173.011962890625	832.2788696289062	-313.40869140625	1141.438842773438	954.0821533203125	-314.9680786132812	1216.539916992188	672.5938110351562	-235.7538452148438	1189.466186523438	748.53662109375	-299.284423828125	1236.28857421875	756.5671997070312	-255.4275817871094	1091.649291992188	1383.978881835938	82.41831207275391	1074.259155273438	1320.161987304688	141.5946655273438	1075.645751953125	1060.874633789062	190.4567718505859	1056.599487304688	1045.785522460938	99.50675201416016	1204.812866210938	847.2874755859375	166.6639556884766	1165.58447265625	837.5935668945312	228.7018127441406	1102.049560546875	995.8621826171875	208.9175567626953	1211.6748046875	675.0660400390625	178.3926544189453	1227.6416015625	745.2679443359375	190.0421600341797	1172.291748046875	748.1961059570312	231.1929473876953	1066.031982421875	1590.08349609375	-14.25213146209717	1252.634643554688	1589.393676757812	-80.31177520751953	1193.254028320312	1596.248779296875	29.77692985534668	1104.855346679688	955.9266357421875	121.9556198120117	1230.9970703125	962.2353515625	65.83988952636719	1122.140258789062	462.4132080078125	-209.6410980224609	1123.296142578125	604.7799682617188	-223.3837280273438	1020.570678710938	30.40053749084473	-159.4503326416016	1066.769409179688	233.1937103271484	-197.0053100585938	1234.495361328125	30.26192665100098	-91.35999298095703	1154.96533203125	33.13634490966797	-62.64400482177734	1149.211791992188	30.1068115234375	-167.5877532958984	982.5993041992188	28.47418594360352	-103.0518951416016	1122.298583984375	466.8926086425781	103.1921310424805	1069.138671875	45.92483901977539	73.69636535644531	1128.124877929688	341.630126953125	88.92190551757812	1246.785766601562	26.5042610168457	6.847561836242676	1170.7451171875	32.38273620605469	-20.14261436462402	1153.37744140625	36.3702507019043	77.82779693603516	992.6787719726562	32.41695404052734	22.21209907531738	1214.979248046875	952.33154296875	-196.7301483154297	1128.468872070312	1580.698852539062	-161.6327362060547	1101.26220703125	954.1958618164062	-235.6854400634766	1150.37451171875	736.9487915039062	135.1952514648438	nan	nan	nan	nan	nan	nan	
79	0.78	1017.000122070312	981.6215209960938	5.593955039978027	1014.065063476562	972.7784423828125	-125.9150238037109	1016.765014648438	1048.127075195312	-59.69263076782227	1251.385009765625	1205.137939453125	-56.72620010375977	1006.082214355469	1151.698364257812	-64.63101959228516	1042.178100585938	1401.587768554688	-79.97643280029297	1197.471435546875	1323.587890625	-63.19244003295898	995.8988037109375	1256.907592773438	-11.57821464538574	1030.907836914062	1362.444702148438	-182.0076446533203	1121.265869140625	1374.751098632812	-229.1073608398438	1098.733032226562	1256.814208984375	-297.0828857421875	1120.227416992188	1058.326416015625	-314.14013671875	1054.070068359375	1039.27685546875	-261.1294555664062	1210.286865234375	852.0647583007812	-242.4071655273438	1172.968017578125	832.2882690429688	-313.3429260253906	1141.395874023438	954.1051635742188	-314.9153442382812	1216.464477539062	672.4747924804688	-235.6420135498047	1189.414428710938	748.5479125976562	-299.2280883789062	1236.25830078125	756.5924682617188	-255.3920288085938	1091.58740234375	1383.932006835938	82.44536590576172	1074.2392578125	1320.14697265625	141.6641998291016	1075.647705078125	1060.856079101562	190.4921875	1056.536499023438	1045.76513671875	99.55550384521484	1204.922241210938	847.3037109375	166.7161407470703	1165.650024414062	837.5983276367188	228.7357025146484	1102.069702148438	995.8485107421875	208.9689331054688	1211.763427734375	675.064208984375	178.4139251708984	1227.699829101562	745.3064575195312	190.0503845214844	1172.498779296875	748.2213134765625	231.2872009277344	1066.031005859375	1590.072143554688	-14.09613037109375	1252.565063476562	1589.394897460938	-80.25422668457031	1193.223999023438	1596.18505859375	29.8631534576416	1104.456787109375	955.915771484375	121.9456176757812	1231.000122070312	962.2179565429688	65.85298156738281	1122.1259765625	462.437255859375	-209.5837249755859	1123.2607421875	604.7919921875	-223.3320007324219	1020.566162109375	30.40011978149414	-159.4399566650391	1066.76171875	233.1981964111328	-196.9758148193359	1234.494140625	30.26220703125	-91.35965728759766	1154.970825195312	33.14463424682617	-62.64295196533203	1149.217529296875	30.11589241027832	-167.5883483886719	982.599609375	28.4725227355957	-103.0458602905273	1122.311279296875	466.8821716308594	103.2410430908203	1069.138549804688	45.92306518554688	73.71066284179688	1128.125610351562	341.6213684082031	88.93972015380859	1246.763305664062	26.48727226257324	6.823042392730713	1170.746948242188	32.38391494750977	-20.14327621459961	1153.383911132812	36.36021423339844	77.83309173583984	992.678955078125	32.41621780395508	22.21595764160156	1214.983154296875	952.419677734375	-196.7286224365234	1128.361694335938	1580.802001953125	-161.5128631591797	1101.30126953125	954.2720947265625	-235.6658172607422	1150.104736328125	737.052001953125	135.338623046875	nan	nan	nan	nan	nan	nan	
